<svg width="120" height="120" viewBox="0 0 120 120" fill="none" xmlns="http://www.w3.org/2000/svg">
<rect width="120" height="120" fill="white"/>
<rect width="120" height="120" fill="url(#paint0_linear)"/>
<path d="M89.5251 68.2195H72.0047C70.2743 68.2195 68.7601 69.7336 68.7601 71.464V88.3355C68.7601 90.0659 67.246 91.58 65.5156 91.58H54.2679C52.5375 91.58 51.0234 90.0659 51.0234 88.3355V71.464C51.0234 69.7336 49.5093 68.2195 47.7789 68.2195H30.4747C28.7443 68.2195 27.2302 66.7054 27.2302 64.9749V54.5925C27.2302 52.862 28.7443 51.3479 30.4747 51.3479H47.7789C49.5093 51.3479 51.0234 49.8338 51.0234 48.1034V31.6645C51.0234 29.9341 52.5375 28.42 54.2679 28.42H65.5156C67.246 28.42 68.7601 29.9341 68.7601 31.6645V48.536C68.7601 50.2664 70.2743 51.7805 72.0047 51.7805H89.5251C91.2555 51.7805 92.7696 53.2946 92.7696 55.0251V65.1912C92.5533 66.9217 91.2555 68.2195 89.5251 68.2195Z" fill="white"/>
<defs>
<linearGradient id="paint0_linear" x1="60" y1="-16.6875" x2="60" y2="137.063" gradientUnits="userSpaceOnUse">
<stop stop-color="#00B1FF"/>
<stop offset="1" stop-color="#42B3B3"/>
</linearGradient>
</defs>
</svg>
