<svg width="201" height="53" viewBox="0 0 201 53" fill="none" xmlns="http://www.w3.org/2000/svg">
<path d="M2.73935 50.3356C0.941653 48.6235 0 46.141 0 42.888V13.3544C0 12.8407 0.428024 12.4983 0.856048 12.4983H7.53322C8.04685 12.4983 8.38927 12.9263 8.38927 13.3544V42.46C8.38927 43.6585 8.73169 44.6001 9.33092 45.285C9.93015 45.9698 10.8718 46.3122 11.9847 46.3122C12.4127 46.3122 12.8407 46.2266 13.2687 46.141C13.7824 45.9698 14.3816 46.3978 14.3816 46.9114L14.6384 51.5341C14.6384 51.9621 14.3816 52.3045 13.9536 52.4757C12.7551 52.8182 11.5566 52.9894 10.2726 52.9894C7.1052 52.9894 4.62266 52.1333 2.73935 50.3356Z" fill="white"/>
<path d="M47.9387 24.3974V51.5341C47.9387 52.0477 47.5106 52.4758 46.997 52.4758H40.8335C40.3198 52.4758 39.8918 52.0477 39.8918 51.5341V51.3629C39.8918 50.5925 38.9502 50.1644 38.3509 50.5925C36.382 52.1333 33.8995 52.9038 30.8177 52.9038C28.0784 52.9038 25.5958 52.3046 23.3701 51.1061C21.1444 49.9076 19.4323 48.1099 18.1482 45.8842C16.8641 43.6585 16.2649 41.0047 16.2649 38.0086C16.2649 35.0124 16.8641 32.3586 18.1482 30.1329C19.4323 27.9072 21.1444 26.1095 23.3701 24.911C25.5958 23.7126 28.0784 23.1133 30.8177 23.1133C33.7283 23.1133 36.1252 23.7982 38.0085 25.2534C38.6077 25.6815 39.5494 25.2534 39.5494 24.483C39.5494 23.9694 39.9774 23.5414 40.491 23.5414H46.997C47.5106 23.4557 47.9387 23.8838 47.9387 24.3974ZM37.5805 43.9153C38.9502 42.46 39.7206 40.4911 39.7206 38.0942C39.7206 35.6116 39.0358 33.7283 37.5805 32.273C36.2108 30.8178 34.4131 30.0473 32.273 30.0473C30.1329 30.0473 28.3352 30.8178 26.9655 32.273C25.5958 33.7283 24.8254 35.6972 24.8254 38.0942C24.8254 40.5767 25.5102 42.46 26.9655 43.9153C28.3352 45.3706 30.1329 46.141 32.273 46.141C34.3275 46.0554 36.1252 45.3706 37.5805 43.9153Z" fill="white"/>
<path d="M101.527 26.2807C103.667 28.4208 104.78 31.6738 104.78 35.954V51.5341C104.78 52.1333 104.352 52.5614 103.753 52.5614H97.4183C96.819 52.5614 96.391 52.1333 96.391 51.5341V37.2381C96.391 34.9268 95.8774 33.2147 94.9357 32.1018C93.9941 30.989 92.6244 30.3897 90.8267 30.3897C88.8578 30.3897 87.3169 30.989 86.1184 32.273C85.0056 33.5571 84.4063 35.4404 84.4063 38.0086V51.5341C84.4063 52.1333 83.9783 52.5614 83.3791 52.5614H77.0443C76.4451 52.5614 76.0171 52.1333 76.0171 51.5341V37.2381C76.0171 32.7011 74.2194 30.3897 70.5384 30.3897C68.5694 30.3897 67.0286 30.989 65.9157 32.273C64.8028 33.5571 64.2036 35.4404 64.2036 38.0086V51.5341C64.2036 52.1333 63.7756 52.5614 63.1763 52.5614H56.8416C56.2424 52.5614 55.8143 52.1333 55.8143 51.5341V24.483C55.8143 23.8838 56.2424 23.4557 56.8416 23.4557H62.8339C63.4332 23.4557 63.8612 23.8838 63.8612 24.483C63.8612 25.3391 64.8028 25.7671 65.4877 25.3391C66.1725 24.8254 66.943 24.3974 67.799 24.055C69.3399 23.3701 71.052 23.1133 72.9353 23.1133C74.9898 23.1133 76.8731 23.5414 78.4996 24.3118C79.7837 24.911 80.8965 25.7671 81.7526 26.8799C82.1806 27.3936 82.8654 27.3936 83.2935 26.9655C84.3207 25.8527 85.6048 24.9966 86.9745 24.3974C88.7722 23.5414 90.7411 23.1133 92.9668 23.1133C96.5622 23.0277 99.3872 24.1406 101.527 26.2807Z" fill="white"/>
<path d="M138.765 26.2807C140.991 28.4208 142.104 31.6738 142.104 35.8684V51.4485C142.104 52.0477 141.59 52.4758 141.077 52.4758H134.742C134.143 52.4758 133.715 51.9621 133.715 51.4485V37.2381C133.715 34.9268 133.201 33.2147 132.174 32.1018C131.146 30.989 129.691 30.3897 127.808 30.3897C125.668 30.3897 123.956 31.0746 122.757 32.3586C121.473 33.6427 120.874 35.6116 120.874 38.1798V51.4485C120.874 52.0477 120.36 52.4758 119.847 52.4758H113.512C112.913 52.4758 112.485 51.9621 112.485 51.4485V24.5686C112.485 23.9694 112.998 23.5413 113.512 23.5413H119.419C120.018 23.5413 120.446 24.055 120.446 24.5686C120.446 25.4246 121.388 25.9383 122.158 25.4246C122.928 24.911 123.699 24.3974 124.641 24.055C126.267 23.3701 128.15 23.0277 130.119 23.0277C133.629 23.0277 136.54 24.1406 138.765 26.2807Z" fill="white"/>
<path d="M179.513 24.3974V51.5341C179.513 52.0477 179.085 52.4758 178.572 52.4758H172.408C171.894 52.4758 171.466 52.0477 171.466 51.5341V51.3629C171.466 50.5925 170.525 50.1644 169.926 50.5925C167.957 52.1333 165.474 52.9038 162.392 52.9038C159.653 52.9038 157.17 52.3046 154.945 51.1061C152.719 49.9076 151.007 48.1099 149.723 45.8842C148.439 43.6585 147.839 41.0047 147.839 38.0086C147.839 35.0124 148.439 32.3586 149.723 30.1329C151.007 27.9072 152.719 26.1095 154.945 24.911C157.17 23.7126 159.653 23.1133 162.392 23.1133C165.303 23.1133 167.7 23.7982 169.583 25.2534C170.182 25.6815 171.124 25.2534 171.124 24.483C171.124 23.9694 171.552 23.5414 172.066 23.5414H178.572C179.085 23.4557 179.513 23.8838 179.513 24.3974ZM169.069 43.9153C170.439 42.46 171.21 40.4911 171.21 38.0942C171.21 35.6116 170.525 33.7283 169.069 32.273C167.7 30.8178 165.902 30.0473 163.762 30.0473C161.622 30.0473 159.824 30.8178 158.454 32.273C157.085 33.7283 156.314 35.6972 156.314 38.0942C156.314 40.5767 156.999 42.46 158.454 43.9153C159.824 45.3706 161.622 46.141 163.762 46.141C165.902 46.0554 167.7 45.3706 169.069 43.9153Z" fill="white"/>
<path d="M199.716 15.7513H192.782C192.097 15.7513 191.498 16.3505 191.498 17.0354V23.7125C191.498 24.3974 190.899 24.9966 190.214 24.9966H185.762C185.078 24.9966 184.478 24.3974 184.478 23.7125V17.0354C184.478 16.3505 183.879 15.7513 183.194 15.7513H176.346C175.661 15.7513 175.062 15.152 175.062 14.4672V10.3582C175.062 9.67334 175.661 9.07411 176.346 9.07411H183.194C183.879 9.07411 184.478 8.47487 184.478 7.79003V1.28407C184.478 0.599233 185.078 0 185.762 0H190.214C190.899 0 191.498 0.599233 191.498 1.28407V7.96124C191.498 8.64608 192.097 9.24532 192.782 9.24532H199.716C200.401 9.24532 201 9.84455 201 10.5294V14.5528C200.914 15.2376 200.401 15.7513 199.716 15.7513Z" fill="white"/>
</svg>
