<svg width="29" height="26" viewBox="0 0 29 26" fill="none" xmlns="http://www.w3.org/2000/svg">
<path d="M20.4837 0C17.487 0 15.602 1.45967 14.5 2.77433C13.4077 1.45967 11.513 0 8.51633 0C3.422 0 0 4.71733 0 9.135C0 15.5537 12.3347 24.157 13.7363 25.114C13.9683 25.2687 14.2293 25.346 14.5 25.346C14.7707 25.346 15.0317 25.2687 15.2637 25.114C16.6653 24.157 29 15.5537 29 9.135C29 4.71733 25.578 0 20.4837 0ZM14.5 22.3397C9.64733 18.8887 2.70667 12.7117 2.70667 9.135C2.70667 6.438 4.727 2.70667 8.51633 2.70667C11.9673 2.70667 13.1853 5.684 13.2337 5.8C13.4367 6.322 13.9297 6.67 14.4903 6.67H14.5C15.0607 6.67 15.5537 6.322 15.7663 5.80967C15.8147 5.684 17.0327 2.70667 20.4837 2.70667C24.273 2.70667 26.2933 6.438 26.2933 9.12533C26.2933 12.702 19.3527 18.8887 14.5 22.3397Z" fill="#1F529D"/>
<path d="M16.2401 9.3671C14.9351 9.3671 14.5001 10.5271 14.5001 10.5271C14.5001 10.5271 14.0651 9.3671 12.7601 9.3671C11.4551 9.3671 10.6721 10.6141 10.6721 11.6388C10.6721 13.3594 14.5098 15.9791 14.5098 15.9791C14.5098 15.9791 18.3474 13.3594 18.3474 11.6388C18.3378 10.6141 17.5548 9.3671 16.2401 9.3671Z" fill="#1F529D"/>
</svg>
